<svg viewBox="0 0 716 116" xmlns="http://www.w3.org/2000/svg" fill-rule="evenodd" clip-rule="evenodd"><g fill="#da1c30"><path d="M45.191 66.095h19.917v28.346h-19.308c-15.366 0-22.188.028-22.188-14.448 0-14.4 9.823-13.898 21.579-13.898zm20.924 49.614l21.961-.011v-75.268c0-38.036-9.326-38.115-35.778-38.115h-25.948l-15.165 19.843h34.411c19.443 0 19.512 0 19.524 17.761l-.012 6.333h-28.714c-23.879 0-35.985 5.767-35.985 33.542 0 30.686 13.749 35.904 35.608 35.904 11.206 0 30.098.011 30.098.011zM313.8 94.441h-36.134c-18.666 0-24.989-1.417-24.989-28.346h64.283c-.392-49.591-3.604-65.139-43.281-65.139-38.944 0-44.607 17.721-44.455 58.349.166 44.04 5.018 56.411 41.322 56.411 23.331 0 4.8.018 26.175 0l17.079-21.275zm-61.123-48.189c0-20.466 1.093-24.094 21.115-24.094 18.921 0 21.776 3.23 21.776 24.094h-42.891zM361.433 2.252v113.457h23.145v-62.455c0-20.314 2.376-31.096 22.583-31.096 14.879 0 18.381 5.163 18.381 21.587v71.964h23.146v-74.773c0-27.662-7.715-39.98-33.065-39.98-13.594 0-25.166 1.729-30.31 18.369h-.735v-17.073h-23.145zM135.989 2.301v113.457h23.146v-70.019c-.367-14.696 6.207-23.616 17.615-23.581 11.053.033 14.246 3.161 15.875 7.842l12.559-14.744c-1.277-3.225-6.194-14.226-20.516-14.252-15.307-.027-21.124 3.674-25.717 16.208h-.918l.551-14.911h-22.595zM536.615 66.095h19.917v28.346h-19.308c-15.366 0-22.188.028-22.188-14.448 0-14.4 9.823-13.898 21.579-13.898zm20.924 49.614l21.961-.011v-75.268c0-38.036-9.327-38.115-35.778-38.115h-25.948l-15.165 19.843h34.411c19.443 0 19.512 0 19.524 17.761l-.012 6.333h-28.714c-23.879 0-35.985 5.767-35.985 33.542 0 30.686 13.748 35.904 35.608 35.904 11.205 0 30.098.011 30.098.011zM712.078 94.414h-36.134c-18.666 0-24.989-1.417-24.989-28.346h64.283c-.392-49.591-3.603-65.14-43.281-65.14-38.943 0-44.607 17.722-44.454 58.35.165 44.04 5.017 56.411 41.322 56.411 23.331 0 4.799.018 26.174 0l17.079-21.275zm-61.123-48.189c0-20.466 1.093-24.094 21.115-24.094 18.921 0 21.777 3.229 21.777 24.094h-42.892z"/></g></svg>